<mxfile host="www.draw.io" modified="2020-03-09T21:45:43.920Z" agent="Mozilla/5.0 (Windows NT 10.0; Win64; x64) AppleWebKit/537.36 (KHTML, like Gecko) Chrome/80.0.3987.132 Safari/537.36" etag="X0SzlkW-N_maicvOdqcO" version="12.8.1" type="github">
  <diagram id="L6W5FDQ7DxmvHCmjNwfB" name="Page-1">
    <mxGraphModel dx="780" dy="752" grid="1" gridSize="10" guides="1" tooltips="1" connect="1" arrows="1" fold="1" page="1" pageScale="1" pageWidth="850" pageHeight="1100" math="0" shadow="0">
      <root>
        <mxCell id="0" />
        <mxCell id="1" parent="0" />
        <mxCell id="-dLVDpePHNbnqSVgZJ3t-17" value="" style="edgeStyle=orthogonalEdgeStyle;rounded=0;orthogonalLoop=1;jettySize=auto;html=1;" edge="1" parent="1" source="-dLVDpePHNbnqSVgZJ3t-1" target="-dLVDpePHNbnqSVgZJ3t-12">
          <mxGeometry relative="1" as="geometry" />
        </mxCell>
        <mxCell id="-dLVDpePHNbnqSVgZJ3t-1" value="Start program" style="rounded=1;whiteSpace=wrap;html=1;" vertex="1" parent="1">
          <mxGeometry x="160" y="40" width="120" height="80" as="geometry" />
        </mxCell>
        <mxCell id="-dLVDpePHNbnqSVgZJ3t-14" value="" style="edgeStyle=orthogonalEdgeStyle;rounded=0;orthogonalLoop=1;jettySize=auto;html=1;" edge="1" parent="1" source="-dLVDpePHNbnqSVgZJ3t-12" target="-dLVDpePHNbnqSVgZJ3t-13">
          <mxGeometry relative="1" as="geometry" />
        </mxCell>
        <mxCell id="-dLVDpePHNbnqSVgZJ3t-12" value="Init WiFi" style="rounded=1;whiteSpace=wrap;html=1;" vertex="1" parent="1">
          <mxGeometry x="160" y="160" width="120" height="80" as="geometry" />
        </mxCell>
        <mxCell id="-dLVDpePHNbnqSVgZJ3t-16" value="" style="edgeStyle=orthogonalEdgeStyle;rounded=0;orthogonalLoop=1;jettySize=auto;html=1;" edge="1" parent="1" source="-dLVDpePHNbnqSVgZJ3t-13" target="-dLVDpePHNbnqSVgZJ3t-15">
          <mxGeometry relative="1" as="geometry" />
        </mxCell>
        <mxCell id="-dLVDpePHNbnqSVgZJ3t-13" value="Start WiFi" style="rounded=1;whiteSpace=wrap;html=1;" vertex="1" parent="1">
          <mxGeometry x="320" y="160" width="120" height="80" as="geometry" />
        </mxCell>
        <mxCell id="-dLVDpePHNbnqSVgZJ3t-19" value="" style="edgeStyle=orthogonalEdgeStyle;rounded=0;orthogonalLoop=1;jettySize=auto;html=1;" edge="1" parent="1" source="-dLVDpePHNbnqSVgZJ3t-15" target="-dLVDpePHNbnqSVgZJ3t-18">
          <mxGeometry relative="1" as="geometry" />
        </mxCell>
        <mxCell id="-dLVDpePHNbnqSVgZJ3t-15" value="WiFi start connection" style="rounded=1;whiteSpace=wrap;html=1;" vertex="1" parent="1">
          <mxGeometry x="480" y="160" width="120" height="80" as="geometry" />
        </mxCell>
        <mxCell id="-dLVDpePHNbnqSVgZJ3t-21" value="" style="edgeStyle=orthogonalEdgeStyle;rounded=0;orthogonalLoop=1;jettySize=auto;html=1;" edge="1" parent="1" source="-dLVDpePHNbnqSVgZJ3t-18" target="-dLVDpePHNbnqSVgZJ3t-20">
          <mxGeometry relative="1" as="geometry">
            <Array as="points">
              <mxPoint x="700" y="260" />
              <mxPoint x="220" y="260" />
            </Array>
          </mxGeometry>
        </mxCell>
        <mxCell id="-dLVDpePHNbnqSVgZJ3t-18" value="WiFi get IP" style="rounded=1;whiteSpace=wrap;html=1;" vertex="1" parent="1">
          <mxGeometry x="640" y="160" width="120" height="80" as="geometry" />
        </mxCell>
        <mxCell id="-dLVDpePHNbnqSVgZJ3t-20" value="" style="rounded=1;whiteSpace=wrap;html=1;" vertex="1" parent="1">
          <mxGeometry x="160" y="280" width="120" height="80" as="geometry" />
        </mxCell>
      </root>
    </mxGraphModel>
  </diagram>
</mxfile>
